<?xml version="1.0" encoding="UTF-8"?>
<svg width="28px" height="21px" viewBox="0 0 28 21" version="1.1" xmlns="http://www.w3.org/2000/svg" xmlns:xlink="http://www.w3.org/1999/xlink">
    <!-- Generator: Sketch 51.2 (57519) - http://www.bohemiancoding.com/sketch -->
    <title>查看</title>
    <desc>Created with Sketch.</desc>
    <defs></defs>
    <g id="Symbols" stroke="none" stroke-width="1" fill="none" fill-rule="evenodd">
        <g id="查看" transform="translate(-2.000000, -6.000000)" fill="#000000" fill-rule="nonzero">
            <g>
                <rect id="Rectangle-path" opacity="0" x="0" y="0" width="32" height="33"></rect>
                <path d="M29.0263202,16.502935 C29.0263202,16.3416084 28.9998741,16.2066639 28.9923592,16.1906038 C28.986667,16.110666 28.960221,15.9649707 28.9356297,15.8884956 C28.9290421,15.8694675 28.9205039,15.849516 28.912989,15.8304879 C28.899718,15.7866277 28.8855836,15.7437567 28.8695305,15.7096578 C26.4672872,10.2911676 21.2952738,6.64934773 16.0013271,6.64934773 C10.7083398,6.64934773 5.53677409,10.2878039 3.14543541,15.676977 C3.11662294,15.7354793 3.09628472,15.7915083 3.08352538,15.8402493 C3.07786522,15.8563094 3.07124569,15.8714132 3.06606522,15.8855606 C3.01880125,16.0283538 3.01787391,16.1277154 3.02164734,16.1018939 C2.99945438,16.2066639 2.97911619,16.4152145 2.97911619,16.4152145 C2.97345603,16.4780369 2.97345603,16.5282289 2.98007553,16.5906226 C2.98007553,16.5906226 3.00038175,16.772857 3.01032703,16.8098579 C3.01314113,16.8615009 3.02542081,16.936558 3.04006688,17.0047888 L3.03910753,17.0047888 C3.05186688,17.0632581 3.06935903,17.1197818 3.09343869,17.1753162 C3.10575034,17.2181871 3.12039641,17.258156 3.13315575,17.2883635 C5.53866081,22.7077771 10.7092991,26.3505863 16.0013271,26.3505863 C21.2962332,26.3505863 26.4682466,22.7107451 28.8430844,17.3487786 C28.8798914,17.2786021 28.9035554,17.2123501 28.9196085,17.154837 C28.9271554,17.1373259 28.9338069,17.1217275 28.9385077,17.1061291 C28.9801115,16.9813417 28.9885858,16.873208 28.9848123,16.873208 L28.9839169,16.8741643 C29.0008654,16.7874991 29.0263202,16.6578969 29.0263202,16.502935 Z M27.2724373,16.5691871 C27.2715099,16.5731114 27.2695912,16.5779591 27.2677045,16.5818835 C27.2648904,16.5935575 27.2601896,16.6072103 27.2573115,16.620863 C25.1196888,21.371721 20.6063649,24.5594717 16.0013271,24.5594717 C11.4076416,24.5594717 6.90231222,21.380559 4.74342394,16.6130803 C4.73821147,16.5965255 4.73443803,16.5808942 4.72877787,16.5653287 C4.72781853,16.5497303 4.72500444,16.5370669 4.72407706,16.5282619 C4.72219034,16.5185664 4.72030362,16.5049137 4.71886459,16.4931736 L4.71886459,16.4810049 C4.72407706,16.4610204 4.72781853,16.441069 4.72973722,16.4191388 C4.73351066,16.4074648 4.73635672,16.3962524 4.74060984,16.383589 C6.87912794,11.6302577 11.3962573,8.44105595 16.0012951,8.44105595 C20.6081877,8.44105595 25.1244217,11.6331597 27.2563522,16.3791699 C27.2582389,16.3884366 27.2601576,16.3962524 27.2630037,16.402584 C27.2648904,16.4103667 27.2667452,16.4181825 27.2705186,16.4264599 C27.2752514,16.4620427 27.2790248,16.4971309 27.2837576,16.5146421 C27.2780974,16.5331425 27.2752833,16.5506866 27.2724373,16.5691871 Z M16.0012951,12.0224608 C13.6075901,12.0224608 11.6589592,14.030997 11.6589592,16.5 C11.6589592,18.9685083 13.6075901,20.9780339 16.0012951,20.9780339 C18.3950002,20.9780339 20.343631,18.9685083 20.343631,16.5 C20.343631,14.030997 18.3950002,12.0224608 16.0012951,12.0224608 Z M16.0012951,19.1868203 C14.5658204,19.1868203 13.3959256,17.9813227 13.3959256,16.500033 C13.3959256,15.019205 14.5658204,13.8137403 16.0012951,13.8137403 C17.4376972,13.8137403 18.6067287,15.019238 18.6067287,16.500033 C18.6066967,17.9813227 17.4376972,19.1868203 16.0012951,19.1868203 Z" id="Shape"></path>
            </g>
        </g>
    </g>
</svg>